mtllib ./policeCar.mtl
o policeCar

g policeCar
v 0 0 -1
v -1.499684 0 -1
v 0 0 0
v -1.499684 0 -1.490116E-07
v 0 0 0
v -1.499684 0 -1.490116E-07
v -1.499684 0.3734148 -1.192093E-07
v 0 0.3734148 2.980232E-08
v -1.499684 0.3734148 -1.192093E-07
v -1.499684 0.7468297 -8.940697E-08
v 0 0.7468297 5.960464E-08
v 0 0.3734148 2.980232E-08
v -1.751936 0 -2.086163E-07
v -1.751936 0 -1
v -1.751936 0.3734148 -1
v -1.751936 0.3734148 -1.788139E-07
v -1.499684 0.3734148 -1
v -1.499684 0.7468297 -1
v -1.499684 0.7468297 -8.940697E-08
v -1.499684 0.3734148 -1.192093E-07
v -1.499684 0 -1
v 0 0 -1
v 0 0.3734148 -1
v -1.499684 0.3734148 -1
v 0 0.3734148 -1
v 0 0.7468297 -1
v -1.499684 0.7468297 -1
v -1.499684 0.3734148 -1
v 0.3000273 0 -1
v 0.3000273 0 -1.192093E-07
v 0.3000273 0.3734148 -8.940697E-08
v 0.3000273 0.3734148 -1
v 0 0.3734148 2.980232E-08
v 0 0.7468297 5.960464E-08
v 0 0.7468297 -1
v 0 0.3734148 -1
v 0 0.3734148 2.980232E-08
v 0 0.3734148 -1
v 0.3000273 0.3734148 -8.940697E-08
v 0.3000273 0.3734148 -1
v 0 0.3734148 -1
v 0 0 -1
v 0.3000273 0.3734148 -1
v 0.3000273 0 -1
v 0 0 -1
v 0 0 0
v 0.3000273 0 -1
v 0.3000273 0 -1.192093E-07
v 0 0 0
v 0 0.3734148 2.980232E-08
v 0.3000273 0 -1.192093E-07
v 0.3000273 0.3734148 -8.940697E-08
v -1.499684 0 -1.490116E-07
v -1.499684 0 -1
v -1.751936 0 -2.086163E-07
v -1.751936 0 -1
v -1.499684 0.3734148 -1.192093E-07
v -1.499684 0 -1.490116E-07
v -1.751936 0.3734148 -1.788139E-07
v -1.751936 0 -2.086163E-07
v -1.499684 0 -1
v -1.499684 0.3734148 -1
v -1.751936 0 -1
v -1.751936 0.3734148 -1
v -1.499684 0.3734148 -1
v -1.499684 0.3734148 -1.192093E-07
v -1.751936 0.3734148 -1
v -1.751936 0.3734148 -1.788139E-07
v 0 0.7468297 5.960464E-08
v -1.499684 0.7468297 -8.940697E-08
v -0.602932 0.7469297 1.788139E-07
v -0.896752 0.7469297 0
v -1.499684 0.7468297 -1
v 0 0.7468297 -1
v -0.896752 0.7469297 -1
v -0.602932 0.7469297 -1
v -0.602932 0.8759163 1.490116E-07
v -0.749842 0.8759163 5.960464E-08
v -0.749842 0.8759163 -0.5
v -0.602932 0.8759163 -0.5
v -0.749842 0.8759163 5.960464E-08
v -0.896752 0.8759163 -2.980232E-08
v -0.896752 0.8759163 -0.5000001
v -0.749842 0.8759163 -0.5
v -0.896752 0.8759163 -0.5000001
v -0.896752 0.8759163 -1
v -0.749842 0.8759163 -1
v -0.749842 0.8759163 -0.5
v -0.749842 0.8759163 -1
v -0.602932 0.8759163 -1
v -0.602932 0.8759163 -0.5
v -0.749842 0.8759163 -0.5
v 0 0.7468297 -1
v 0 0.7468297 5.960464E-08
v -0.602932 0.7469297 1.788139E-07
v -0.602932 0.7469297 -0.5
v -0.602932 0.7469297 -1
v -1.499684 0.7468297 -8.940697E-08
v -1.499684 0.7468297 -1
v -0.896752 0.7469297 -1
v -0.896752 0.7469297 -0.5000001
v -0.896752 0.7469297 0
v -0.602932 0.7469297 1.788139E-07
v -0.896752 0.7469297 0
v -0.896752 0.811423 -1.490116E-08
v -0.896752 0.8759163 -2.980232E-08
v -0.749842 0.8759163 5.960464E-08
v -0.602932 0.8759163 1.490116E-07
v -0.602932 0.811423 1.639128E-07
v -0.602932 0.7469297 -1
v -0.602932 0.7469297 -0.5
v -0.602932 0.811423 -0.5
v -0.602932 0.811423 -1
v -0.602932 0.7469297 -0.5
v -0.602932 0.7469297 1.788139E-07
v -0.602932 0.811423 1.639128E-07
v -0.602932 0.811423 -0.5
v -0.602932 0.811423 1.639128E-07
v -0.602932 0.8759163 1.490116E-07
v -0.602932 0.8759163 -0.5
v -0.602932 0.811423 -0.5
v -0.602932 0.8759163 -0.5
v -0.602932 0.8759163 -1
v -0.602932 0.811423 -1
v -0.602932 0.811423 -0.5
v -0.896752 0.7469297 0
v -0.896752 0.7469297 -0.5000001
v -0.896752 0.811423 -0.5000001
v -0.896752 0.811423 -1.490116E-08
v -0.896752 0.7469297 -0.5000001
v -0.896752 0.7469297 -1
v -0.896752 0.811423 -1
v -0.896752 0.811423 -0.5000001
v -0.896752 0.811423 -1
v -0.896752 0.8759163 -1
v -0.896752 0.8759163 -0.5000001
v -0.896752 0.811423 -0.5000001
v -0.896752 0.8759163 -0.5000001
v -0.896752 0.8759163 -2.980232E-08
v -0.896752 0.811423 -1.490116E-08
v -0.896752 0.811423 -0.5000001
v -0.896752 0.7469297 -1
v -0.602932 0.7469297 -1
v -0.602932 0.811423 -1
v -0.602932 0.8759163 -1
v -0.749842 0.8759163 -1
v -0.896752 0.8759163 -1
v -0.896752 0.811423 -1

vn 0 -1 0
vn 0 -1 0
vn 0 -1 0
vn 0 -1 0
vn -9.9362E-08 -7.981022E-08 1
vn -9.9362E-08 -7.981022E-08 1
vn -9.9362E-08 -7.981022E-08 1
vn -9.9362E-08 -7.981022E-08 1
vn -9.9362E-08 -7.981022E-08 1
vn -9.9362E-08 -7.981022E-08 1
vn -9.9362E-08 -7.981022E-08 1
vn -9.9362E-08 -7.981022E-08 1
vn -1 0 0
vn -1 0 0
vn -1 0 0
vn -1 0 0
vn -0.9999999 0 0
vn -0.9999999 0 0
vn -0.9999999 0 0
vn -0.9999999 0 0
vn 0 0 -1
vn 0 0 -1
vn 0 0 -1
vn 0 0 -1
vn 0 0 -1
vn 0 0 -1
vn 0 0 -1
vn 0 0 -1
vn 0.9999999 0 0
vn 1 0 0
vn 0.9999999 0 0
vn 0.9999999 0 0
vn 0.9999999 0 0
vn 0.9999999 0 0
vn 0.9999999 0 0
vn 0.9999999 0 0
vn 0 0.9999999 0
vn 0 1 0
vn 0 0.9999999 0
vn 0 0.9999999 0
vn 0 0 -1
vn 0 0 -1
vn 0 0 -1
vn 0 0 -1
vn 0 -0.9999999 0
vn 0 -1 0
vn 0 -0.9999999 0
vn 0 -0.9999999 0
vn 3.973282E-07 -7.981023E-08 1
vn 3.973282E-07 -7.981023E-08 1
vn 3.973282E-07 -7.981023E-08 1
vn 3.973282E-07 -7.981023E-08 1
vn 0 -1 0
vn 0 -1 0
vn 0 -1 0
vn 0 -1 0
vn -2.3629E-07 -7.981023E-08 1
vn -2.3629E-07 -7.981023E-08 1
vn -2.3629E-07 -7.981023E-08 1
vn -2.3629E-07 -7.981023E-08 1
vn 0 0 -1
vn 0 0 -1
vn 0 0 -1
vn 0 0 -1
vn 0 1 0
vn 0 1 0
vn 0 1 0
vn 0 1 0
vn -1.827848E-07 -0.001042907 0.9999995
vn -9.9362E-08 -0.0002949353 1
vn -6.085762E-07 -0.004860573 0.9999882
vn -1.827848E-07 -0.001042907 0.9999995
vn 0 -0.001191894 -0.9999993
vn 0 -0.001191894 -0.9999993
vn 0 -0.001191894 -0.9999993
vn 0 -0.001191894 -0.9999993
vn 0 0.9999999 0
vn 0 1 0
vn 0 1 0
vn 0 1 0
vn 0 1 0
vn 0 1 0
vn 0 1 0
vn 0 1 0
vn 0 1 0
vn 0 1 0
vn 0 1 0
vn 0 1 0
vn 0 1 0
vn 0 1 0
vn 0 1 0
vn 0 1 0
vn 0.0001658837 1 0
vn 0.0001658837 1 0
vn 0.0001658837 0.9999999 0
vn 0.0001658837 1 0
vn 0.0001658837 0.9999999 0
vn -0.0001658837 1 0
vn -0.0001658837 1 0
vn -0.0001658837 0.9999999 0
vn -0.0001658837 1 0
vn -0.0001658837 0.9999999 0
vn -6.085833E-07 2.310496E-07 0.9999999
vn -6.085833E-07 2.310496E-07 0.9999999
vn -6.085834E-07 2.310498E-07 1
vn -6.085834E-07 2.310498E-07 1
vn -6.085833E-07 2.310497E-07 0.9999999
vn -6.085832E-07 2.310498E-07 1
vn -6.085832E-07 2.310498E-07 1
vn 1 0 0
vn 1 0 0
vn 1 0 0
vn 1 0 0
vn 1 0 0
vn 1 0 0
vn 1 0 0
vn 1 0 0
vn 1 0 0
vn 1 0 0
vn 1 0 0
vn 1 0 0
vn 1 0 0
vn 1 0 0
vn 1 0 0
vn 1 0 0
vn -1 0 0
vn -1 0 0
vn -1 0 0
vn -1 0 0
vn -1 0 0
vn -1 0 0
vn -1 0 0
vn -1 0 0
vn -1 0 0
vn -1 0 0
vn -1 0 0
vn -1 0 0
vn -1 0 0
vn -1 0 0
vn -1 0 0
vn -1 0 0
vn 0 0 -0.9999999
vn 0 0 -0.9999999
vn 0 0 -1
vn 0 0 -1
vn 0 0 -0.9999999
vn 0 0 -1
vn 0 0 -1

vt 0 -1
vt -1.499684 -1
vt 0 0
vt -1.499684 -1.490116E-07
vt 0 0
vt -1.499684 8.470329E-22
vt -1.499684 0.3734148
vt 2.961219E-15 0.3734148
vt -1.499684 0.3734148
vt -1.499684 0.7468297
vt 5.922437E-15 0.7468297
vt 2.961219E-15 0.3734148
vt -2.086163E-07 0
vt -1 0
vt -1 0.3734148
vt -1.788139E-07 0.3734148
vt -1 0.3734148
vt -1 0.7468297
vt -8.940697E-08 0.7468297
vt -1.192093E-07 0.3734148
vt -1.499684 0
vt 0 0
vt 0 0.3734148
vt -1.499684 0.3734148
vt 0 0.3734148
vt 0 0.7468297
vt -1.499684 0.7468297
vt -1.499684 0.3734148
vt 1 0
vt 1.192093E-07 0
vt 8.940697E-08 0.3734148
vt 1 0.3734148
vt -2.980232E-08 0.3734148
vt -5.960464E-08 0.7468297
vt 1 0.7468297
vt 1 0.3734148
vt 0 2.980232E-08
vt 0 -1
vt -0.3000273 -8.940697E-08
vt -0.3000273 -1
vt 0 0.3734148
vt 0 0
vt -0.3000273 0.3734148
vt -0.3000273 0
vt 0 -1
vt 0 0
vt 0.3000273 -1
vt 0.3000273 -1.192093E-07
vt 0 0
vt -1.18413E-14 0.3734148
vt 0.3000273 8.470329E-22
vt 0.3000273 0.3734148
vt -1.499684 -1.490116E-07
vt -1.499684 -1
vt -1.751936 -2.086163E-07
vt -1.751936 -1
vt -1.499684 0.3734148
vt -1.499684 1.638893E-14
vt -1.751936 0.3734148
vt -1.751936 1.638893E-14
vt 1.499684 0
vt 1.499684 0.3734148
vt 1.751936 0
vt 1.751936 0.3734148
vt 1.499684 -1
vt 1.499684 -1.192093E-07
vt 1.751936 -1
vt 1.751936 -1.788139E-07
vt 5.922437E-15 0.7468285
vt -1.499684 0.7468285
vt -0.602932 0.7469285
vt -0.896752 0.7469285
vt 1.499684 0.7480211
vt 0 0.7480211
vt 0.896752 0.7481211
vt 0.602932 0.7481211
vt 0.602932 1.490116E-07
vt 0.749842 5.960466E-08
vt 0.749842 -0.5
vt 0.602932 -0.5
vt 0.749842 5.960466E-08
vt 0.896752 -2.980231E-08
vt 0.896752 -0.5000001
vt 0.749842 -0.5
vt 0.896752 -0.5000001
vt 0.896752 -1
vt 0.749842 -1
vt 0.749842 -0.5
vt 0.749842 -1
vt 0.602932 -1
vt 0.602932 -0.5
vt 0.749842 -0.5
vt 0.0001238869 -1
vt 0.0001238869 5.960557E-08
vt 0.603056 1.788149E-07
vt 0.603056 -0.5
vt 0.603056 -1
vt 1.49956 -8.940784E-08
vt 1.49956 -1
vt 0.8966281 -1
vt 0.8966281 -0.5000001
vt 0.8966281 -8.711825E-13
vt -0.602932 0.7469297
vt -0.896752 0.7469297
vt -0.896752 0.811423
vt -0.896752 0.8759163
vt -0.749842 0.8759163
vt -0.602932 0.8759163
vt -0.602932 0.811423
vt -1 0.7469297
vt -0.5 0.7469297
vt -0.5 0.811423
vt -1 0.811423
vt -0.5 0.7469297
vt 1.788139E-07 0.7469297
vt 1.639128E-07 0.811423
vt -0.5 0.811423
vt 1.639128E-07 0.811423
vt 1.490116E-07 0.8759163
vt -0.5 0.8759163
vt -0.5 0.811423
vt -0.5 0.8759163
vt -1 0.8759163
vt -1 0.811423
vt -0.5 0.811423
vt 3.185903E-15 0.7469297
vt -0.5000001 0.7469297
vt -0.5000001 0.811423
vt -1.490116E-08 0.811423
vt -0.5000001 0.7469297
vt -1 0.7469297
vt -1 0.811423
vt -0.5000001 0.811423
vt -1 0.811423
vt -1 0.8759163
vt -0.5000001 0.8759163
vt -0.5000001 0.811423
vt -0.5000001 0.8759163
vt -2.980232E-08 0.8759163
vt -1.490116E-08 0.811423
vt -0.5000001 0.811423
vt 0.896752 0.7469297
vt 0.602932 0.7469297
vt 0.602932 0.811423
vt 0.602932 0.8759163
vt 0.749842 0.8759163
vt 0.896752 0.8759163
vt 0.896752 0.811423

g policeCar_0
usemtl policeCar
f 3/3/3 4/4/4 2/2/2 1/1/1
f 16/16/16 15/15/15 14/14/14 13/13/13
f 19/19/19 18/18/18 17/17/17 20/20/20
f 30/30/30 29/29/29 32/32/32 31/31/31
f 33/33/33 36/36/36 35/35/35 34/34/34
f 39/39/39 40/40/40 38/38/38 37/37/37
f 43/43/43 44/44/44 42/42/42 41/41/41
f 47/47/47 48/48/48 46/46/46 45/45/45
f 51/51/51 52/52/52 50/50/50 49/49/49
f 55/55/55 56/56/56 54/54/54 53/53/53
f 59/59/59 60/60/60 58/58/58 57/57/57
f 63/63/63 64/64/64 62/62/62 61/61/61
f 67/67/67 68/68/68 66/66/66 65/65/65
f 71/71/71 72/72/72 70/70/70 69/69/69
f 75/75/75 76/76/76 74/74/74 73/73/73

g policeCar_1
usemtl wheel
f 8/8/8 7/7/7 6/6/6 5/5/5
f 11/11/11 10/10/10 9/9/9 12/12/12
f 21/21/21 24/24/24 23/23/23 22/22/22
f 28/28/28 27/27/27 26/26/26 25/25/25

g policeCar_2
usemtl blue
f 77/77/77 80/80/80 79/79/79 78/78/78
f 81/81/81 84/84/84 83/83/83 82/82/82
f 115/115/115 114/114/114 117/117/117 116/116/116
f 119/119/119 118/118/118 121/121/121 120/120/120
f 129/129/129 128/128/128 127/127/127 126/126/126
f 138/138/138 141/141/141 140/140/140 139/139/139

g policeCar_3
usemtl red
f 88/88/88 87/87/87 86/86/86 85/85/85
f 92/92/92 91/91/91 90/90/90 89/89/89
f 110/110/110 113/113/113 112/112/112 111/111/111
f 125/125/125 124/124/124 123/123/123 122/122/122
f 133/133/133 132/132/132 131/131/131 130/130/130
f 136/136/136 135/135/135 134/134/134 137/137/137

g policeCar_4
usemtl policeCar
f 93/93/93 97/97/97 96/96/96
f 94/94/94 93/93/93 96/96/96
f 94/94/94 96/96/96 95/95/95
f 101/101/101 100/100/100 99/99/99
f 101/101/101 99/99/99 98/98/98
f 102/102/102 101/101/101 98/98/98

g policeCar_5
usemtl blue
f 107/107/107 109/109/109 108/108/108
f 103/103/103 109/109/109 107/107/107
f 103/103/103 107/107/107 104/104/104
f 107/107/107 105/105/105 104/104/104
f 107/107/107 106/106/106 105/105/105

g policeCar_6
usemtl red
f 148/148/148 147/147/147 146/146/146
f 142/142/142 148/148/148 146/146/146
f 142/142/142 146/146/146 143/143/143
f 146/146/146 144/144/144 143/143/143
f 145/145/145 144/144/144 146/146/146

